      <svg xmlns="http://www.w3.org/2000/svg" width="210mm" height="297mm"  viewbox="0 0 2100 2970">
      
      <line x1="105mm" y1="0" x2="105mm" y2="297mm" stroke="#cccccc" stroke-width="1px"/>
      <line x1="105mm" y1="74.25mm" x2="105mm" y2="223mm" stroke="#333333" stroke-width="1px"/>
      <line x1="" y1="74.25mm" x2="210mm" y2="74.25mm" stroke="#cccccc" stroke-width="1"/>
      <line x1="" y1="148.5mm" x2="210mm" y2="148.5mm" stroke="#cccccc" stroke-width="1"/>
      <line x1="" y1="223mm" x2="210mm" y2="223mm" stroke="#cccccc" stroke-width="1"/>
<text transform="rotate(90 0 0) translate(0,-350)" font-fammily="Shippori Mincho" font-size="8" stlye="padding:5px;">
<tspan x="10" y="0px">一、午后ごごの授業</tspan>
<tspan x="10" y="14px"></tspan>
<tspan x="10" y="28px">「ではみなさんは、そういうふうに川だと云いわれたり、乳の流</tspan>
<tspan x="10" y="42px">(れたあとだと云われたりしていたこのぼんやりと白いものがほんと</tspan>
<tspan x="10" y="56px">うは何かご承知ですか。」先生は、黒板に吊つるした大きな黒い星</tspan>
<tspan x="10" y="70px">座の図の、上から下へ白くけぶった銀河帯のようなところを指さし</tspan>
<tspan x="10" y="84px">ながら、みんなに問といをかけました。</tspan>
<tspan x="10" y="98px">　カムパネルラが手をあげました。それから四五人手をあげました。</tspan>
<tspan x="10" y="112px">ジョバンニも手をあげようとして、急いでそのままやめました。</tspan>
<tspan x="10" y="126px">たしかにあれがみんな星だと、いつか雑誌で読んだのでしたが、こ</tspan>
<tspan x="10" y="140px">のごろはジョバンニはまるで毎日教室でもねむく、本を読むひまも</tspan>
<tspan x="10" y="154px">読む本もないので、なんだかどんなこともよくわからないという気</tspan>
<tspan x="10" y="168px">持ちがするのでした。</tspan>
<tspan x="10" y="182px">　ところが先生は早くもそれを見附みつけたのでした。</tspan>
<tspan x="10" y="196px">「ジョバンニさん。あなたはわかっているのでしょう。」</tspan>
<tspan x="10" y="210px">　ジョバンニは勢いきおいよく立ちあがりましたが、立って見ると</tspan>
<tspan x="10" y="224px">もうはっきりとそれを答えることができないのでした。ザネリが前</tspan>
<tspan x="10" y="238px">の席からふりかえって、ジョバンニを見てくすっとわらいました。</tspan>
<tspan x="10" y="252px">ジョバンニはもうどぎまぎしてまっ赤になってしまいました。先生</tspan>
<tspan x="10" y="266px">がまた云いました。</tspan>
<tspan x="10" y="280px">「大きな望遠鏡で銀河をよっく調べると銀河は大体何でしょう。」</tspan>
<tspan x="10" y="294px">　やっぱり星だとジョバンニは思いましたがこんどもすぐに答える</tspan>
<tspan x="10" y="308px">ことができませんでした。</tspan>
<tspan x="10" y="322px">　先生はしばらく困ったようすでしたが、眼めをカムパネルラの方</tspan>
</text>
<text font-size="4" transform="rotate(90 0 0) translate(130,-10)">1</text><text transform="rotate(90 0 0) translate(263,-350)" font-fammily="Shippori Mincho" font-size="8" stlye="padding:5px;">
<tspan x="10" y="0px">へ向けて、</tspan>
<tspan x="10" y="14px">「ではカムパネルラさん。」と名指しました。するとあんなに元気</tspan>
<tspan x="10" y="28px">に手をあげたカムパネルラが、やはりもじもじ立ち上ったままやは</tspan>
<tspan x="10" y="42px">り答えができませんでした。</tspan>
<tspan x="10" y="56px">　先生は意外なようにしばらくじっとカムパネルラを見ていました</tspan>
<tspan x="10" y="70px">が、急いで「では。よし。」と云いながら、自分で星図を指さしま</tspan>
<tspan x="10" y="84px">した。</tspan>
<tspan x="10" y="98px">「このぼんやりと白い銀河を大きないい望遠鏡で見ますと、もうた</tspan>
<tspan x="10" y="112px">くさんの小さな星に見えるのです。ジョバンニさんそうでしょう。」</tspan>
<tspan x="10" y="126px"></tspan>
<tspan x="10" y="140px">　ジョバンニはまっ赤になってうなずきました。けれどもいつかジョ</tspan>
<tspan x="10" y="154px">バンニの眼のなかには涙なみだがいっぱいになりました。そうだ</tspan>
<tspan x="10" y="168px">僕ぼくは知っていたのだ、勿論もちろんカムパネルラも知っている、</tspan>
<tspan x="10" y="182px">それはいつかカムパネルラのお父さんの博士のうちでカムパネル</tspan>
<tspan x="10" y="196px">ラといっしょに読んだ雑誌のなかにあったのだ。それどこでなくカ</tspan>
<tspan x="10" y="210px">ムパネルラは、その雑誌を読むと、すぐお父さんの書斎しょさいか</tspan>
<tspan x="10" y="224px">ら巨おおきな本をもってきて、ぎんがというところをひろげ、まっ</tspan>
<tspan x="10" y="238px">黒な頁ページいっぱいに白い点々のある美しい写真を二人でいつま</tspan>
<tspan x="10" y="252px">でも見たのでした。それをカムパネルラが忘れる筈はずもなかった</tspan>
<tspan x="10" y="266px">のに、すぐに返事をしなかったのは、このごろぼくが、朝にも午后</tspan>
<tspan x="10" y="280px">にも仕事がつらく、学校に出てももうみんなともはきはき遊ばず、</tspan>
<tspan x="10" y="294px">カムパネルラともあんまり物を云わないようになったので、カムパ</tspan>
<tspan x="10" y="308px">ネルラがそれを知って気の毒がってわざと返事をしなかったのだ、</tspan>
<tspan x="10" y="322px">そう考えるとたまらないほど、じぶんもカムパネルラもあわれなよ</tspan>
</text>
<text font-size="4" transform="rotate(90 0 0) translate(393,-10)">2</text><text transform="rotate(90 0 0) translate(526,-350)" font-fammily="Shippori Mincho" font-size="8" stlye="padding:5px;">
<tspan x="10" y="0px">うな気がするのでした。</tspan>
<tspan x="10" y="14px">　先生はまた云いました。</tspan>
<tspan x="10" y="28px">「ですからもしもこの天あまの川がわがほんとうに川だと考えるな</tspan>
<tspan x="10" y="42px">ら、その一つ一つの小さな星はみんなその川のそこの砂や砂利じゃ</tspan>
<tspan x="10" y="56px">りの粒つぶにもあたるわけです。またこれを巨きな乳の流れと考え</tspan>
<tspan x="10" y="70px">るならもっと天の川とよく似ています。つまりその星はみな、乳の</tspan>
<tspan x="10" y="84px">なかにまるで細かにうかんでいる脂油しゆの球にもあたるのです。</tspan>
<tspan x="10" y="98px">そんなら何がその川の水にあたるかと云いますと、それは真空とい</tspan>
<tspan x="10" y="112px">う光をある速さで伝えるもので、太陽や地球もやっぱりそのなかに</tspan>
<tspan x="10" y="126px">浮うかんでいるのです。つまりは私どもも天の川の水のなかに棲す</tspan>
<tspan x="10" y="140px">んでいるわけです。そしてその天の川の水のなかから四方を見ると、</tspan>
<tspan x="10" y="154px">ちょうど水が深いほど青く見えるように、天の川の底の深く遠い</tspan>
<tspan x="10" y="168px">ところほど星がたくさん集って見えしたがって白くぼんやり見える</tspan>
<tspan x="10" y="182px">のです。この模型をごらんなさい。」</tspan>
<tspan x="10" y="196px">　先生は中にたくさん光る砂のつぶの入った大きな両面の凸とつレ</tspan>
<tspan x="10" y="210px">ンズを指しました。</tspan>
<tspan x="10" y="224px">「天の川の形はちょうどこんななのです。このいちいちの光るつぶ</tspan>
<tspan x="10" y="238px">がみんな私どもの太陽と同じようにじぶんで光っている星だと考え</tspan>
<tspan x="10" y="252px">ます。私どもの太陽がこのほぼ中ごろにあって地球がそのすぐ近く</tspan>
<tspan x="10" y="266px">にあるとします。みなさんは夜にこのまん中に立ってこのレンズの</tspan>
<tspan x="10" y="280px">中を見まわすとしてごらんなさい。こっちの方はレンズが薄うすい</tspan>
<tspan x="10" y="294px">のでわずかの光る粒即すなわち星しか見えないのでしょう。こっち</tspan>
<tspan x="10" y="308px">やこっちの方はガラスが厚いので、光る粒即ち星がたくさん見えそ</tspan>
<tspan x="10" y="322px">の遠いのはぼうっと白く見えるというこれがつまり今日の銀河の説</tspan>
</text>
<text font-size="4" transform="rotate(90 0 0) translate(656,-10)">3</text><text transform="rotate(90 0 0) translate(789,-350)" font-fammily="Shippori Mincho" font-size="8" stlye="padding:5px;">
<tspan x="10" y="0px">なのです。そんならこのレンズの大きさがどれ位あるかまたその中</tspan>
<tspan x="10" y="14px">のさまざまの星についてはもう時間ですからこの次の理科の時間に</tspan>
<tspan x="10" y="28px">お話します。では今日はその銀河のお祭なのですからみなさんは外</tspan>
<tspan x="10" y="42px">へでてよくそらをごらんなさい。ではここまでです。本やノートを</tspan>
<tspan x="10" y="56px">おしまいなさい。」</tspan>
<tspan x="10" y="70px">　そして教室中はしばらく机つくえの蓋ふたをあけたりしめたり本</tspan>
<tspan x="10" y="84px">を重ねたりする音がいっぱいでしたがまもなくみんなはきちんと立っ</tspan>
<tspan x="10" y="98px">て礼をすると教室を出ました。</tspan>
<tspan x="10" y="112px"></tspan>
<tspan x="10" y="126px">二、活版所</tspan>
<tspan x="10" y="140px"></tspan>
<tspan x="10" y="154px">　ジョバンニが学校の門を出るとき、同じ組の七八人は家へ帰らず</tspan>
<tspan x="10" y="168px">カムパネルラをまん中にして校庭の隅すみの桜さくらの木のところ</tspan>
<tspan x="10" y="182px">に集まっていました。それはこんやの星祭に青いあかりをこしらえ</tspan>
<tspan x="10" y="196px">て川へ流す烏瓜からすうりを取りに行く相談らしかったのです。</tspan>
<tspan x="10" y="210px">　けれどもジョバンニは手を大きく振ふってどしどし学校の門を出</tspan>
<tspan x="10" y="224px">て来ました。すると町の家々ではこんやの銀河の祭りにいちいの葉</tspan>
<tspan x="10" y="238px">の玉をつるしたりひのきの枝えだにあかりをつけたりいろいろ仕度</tspan>
<tspan x="10" y="252px">したくをしているのでした。</tspan>
<tspan x="10" y="266px">　家へは帰らずジョバンニが町を三つ曲ってある大きな活版処には</tspan>
<tspan x="10" y="280px">いってすぐ入口の計算台に居ただぶだぶの白いシャツを着た人にお</tspan>
<tspan x="10" y="294px">じぎをしてジョバンニは靴くつをぬいで上りますと、突つき当りの</tspan>
<tspan x="10" y="308px">大きな扉とをあけました。中にはまだ昼なのに電燈がついてたくさ</tspan>
<tspan x="10" y="322px">んの輪転器がばたりばたりとまわり、きれで頭をしばったりラムプ</tspan>
</text>
<text font-size="4" transform="rotate(90 0 0) translate(919,-10)">4</text><text transform="rotate(-90 0 0) translate(-263,395)" font-fammily="Shippori Mincho" font-size="8" stlye="padding:5px;">
<tspan x="10" y="230px">表紙</tspan></text>
<text transform="rotate(-90 0 0) translate(-526,395)" font-fammily="Shippori Mincho" font-size="8" stlye="padding:5px;">
<tspan x="10" y="230px">裏表紙</tspan></text>
<text transform="rotate(-90 0 0) translate(-789,395)" font-fammily="Shippori Mincho" font-size="8" stlye="padding:5px;">
<tspan x="10" y="0px">ちぶえを吹ふきながらパン屋へ寄ってパンの塊かたまりを一つと角</tspan>
<tspan x="10" y="14px">砂糖を一袋ふくろ買いますと一目散いちもくさんに走りだしました。</tspan>
<tspan x="10" y="28px"></tspan>
<tspan x="10" y="42px"></tspan>
<tspan x="10" y="56px">三、家</tspan>
<tspan x="10" y="70px"></tspan>
<tspan x="10" y="84px">　ジョバンニが勢いきおいよく帰って来たのは、ある裏町の小さな</tspan>
<tspan x="10" y="98px">家でした。その三つならんだ入口の一番左側には空箱に紫むらさき</tspan>
<tspan x="10" y="112px">いろのケールやアスパラガスが植えてあって小さな二つの窓には日</tspan>
<tspan x="10" y="126px">覆ひおおいが下りたままになっていました。</tspan>
<tspan x="10" y="140px">「お母っかさん。いま帰ったよ。工合ぐあい悪くなかったの。」ジョ</tspan>
<tspan x="10" y="154px">バンニは靴をぬぎながら云いました。</tspan>
<tspan x="10" y="168px">「ああ、ジョバンニ、お仕事がひどかったろう。今日は涼すずしく</tspan>
<tspan x="10" y="182px">てね。わたしはずうっと工合がいいよ。」</tspan>
<tspan x="10" y="196px">　ジョバンニは玄関げんかんを上って行きますとジョバンニのお母</tspan>
<tspan x="10" y="210px">さんがすぐ入口の室へやに白い巾きれを被かぶって寝やすんでいた</tspan>
<tspan x="10" y="224px">のでした。ジョバンニは窓をあけました。</tspan>
<tspan x="10" y="238px">「お母さん。今日は角砂糖を買ってきたよ。牛乳に入れてあげよう</tspan>
<tspan x="10" y="252px">と思って。」</tspan>
<tspan x="10" y="266px">「ああ、お前さきにおあがり。あたしはまだほしくないんだから。」</tspan>
<tspan x="10" y="280px"></tspan>
<tspan x="10" y="294px">「お母さん。姉さんはいつ帰ったの。」</tspan>
<tspan x="10" y="308px">「ああ三時ころ帰ったよ。みんなそこらをしてくれてね。」</tspan>
<tspan x="10" y="322px">「お母さんの牛乳は来ていないんだろうか。」</tspan>
</text>
<text font-size="4" transform="rotate(-90 0 0) translate(-659,730)">6</text><text transform="rotate(-90 0 0) translate(-1052,395)" font-fammily="Shippori Mincho" font-size="8" stlye="padding:5px;">
<tspan x="10" y="0px">シェードをかけたりした人たちが、何か歌うように読んだり数えた</tspan>
<tspan x="10" y="14px">りしながらたくさん働いて居おりました。</tspan>
<tspan x="10" y="28px">　ジョバンニはすぐ入口から三番目の高い卓子テーブルに座すわっ</tspan>
<tspan x="10" y="42px">た人の所へ行っておじぎをしました。その人はしばらく棚たなをさ</tspan>
<tspan x="10" y="56px">がしてから、</tspan>
<tspan x="10" y="70px">「これだけ拾って行けるかね。」と云いながら、一枚の紙切れを渡</tspan>
<tspan x="10" y="84px">わたしました。ジョバンニはその人の卓子の足もとから一つの小さ</tspan>
<tspan x="10" y="98px">な平たい函はこをとりだして向うの電燈のたくさんついた、たてか</tspan>
<tspan x="10" y="112px">けてある壁かべの隅の所へしゃがみ込こむと小さなピンセットでま</tspan>
<tspan x="10" y="126px">るで粟粒あわつぶぐらいの活字を次から次と拾いはじめました。青</tspan>
<tspan x="10" y="140px">い胸あてをした人がジョバンニのうしろを通りながら、</tspan>
<tspan x="10" y="154px">「よう、虫めがね君、お早う。」と云いますと、近くの四五人の人</tspan>
<tspan x="10" y="168px">たちが声もたてずこっちも向かずに冷くわらいました。</tspan>
<tspan x="10" y="182px">　ジョバンニは何べんも眼を拭ぬぐいながら活字をだんだんひろい</tspan>
<tspan x="10" y="196px">ました。</tspan>
<tspan x="10" y="210px">　六時がうってしばらくたったころ、ジョバンニは拾った活字をいっ</tspan>
<tspan x="10" y="224px">ぱいに入れた平たい箱はこをもういちど手にもった紙きれと引き</tspan>
<tspan x="10" y="238px">合せてから、さっきの卓子の人へ持って来ました。その人は黙だまっ</tspan>
<tspan x="10" y="252px">てそれを受け取って微かすかにうなずきました。</tspan>
<tspan x="10" y="266px">　ジョバンニはおじぎをすると扉をあけてさっきの計算台のところ</tspan>
<tspan x="10" y="280px">に来ました。するとさっきの白服を着た人がやっぱりだまって小さ</tspan>
<tspan x="10" y="294px">な銀貨を一つジョバンニに渡しました。ジョバンニは俄にわかに顔</tspan>
<tspan x="10" y="308px">いろがよくなって威勢いせいよくおじぎをすると台の下に置いた鞄</tspan>
<tspan x="10" y="322px">かばんをもっておもてへ飛びだしました。それから元気よく口笛く</tspan>
</text>
<text font-size="4" transform="rotate(-90 0 0) translate(-922,730)">5</text></svg>
